NotoSansHanunoo-Regular.ufo
<glyph name="uni1720" format="2">
  <advance width="880"/>
  <unicode hex="1720"/>
  <outline>
    <contour>
      <point x="143" y="0" type="line"/>
      <point x="222" y="0" type="line"/>
      <point x="464" y="153"/>
      <point x="725" y="435"/>
      <point x="906" y="634" type="curve"/>
      <point x="810" y="634" type="line"/>
      <point x="671" y="480"/>
      <point x="499" y="307"/>
      <point x="341" y="175" type="curve" smooth="yes"/>
      <point x="308" y="148"/>
      <point x="271" y="117"/>
      <point x="239" y="93" type="curve"/>
      <point x="254" y="142"/>
      <point x="262" y="177"/>
      <point x="271" y="216" type="curve" smooth="yes"/>
      <point x="297" y="327" type="line" smooth="yes"/>
      <point x="320" y="426"/>
      <point x="332" y="473"/>
      <point x="332" y="511" type="curve" smooth="yes"/>
      <point x="332" y="535"/>
      <point x="320" y="559"/>
      <point x="289" y="559" type="curve" smooth="yes"/>
      <point x="266" y="559"/>
      <point x="243" y="552"/>
      <point x="218" y="540" type="curve" smooth="yes"/>
      <point x="52" y="459" type="line"/>
      <point x="31" y="369" type="line"/>
      <point x="253" y="478" type="line"/>
    </contour>
  </outline>
</glyph>
<glyph name="uni1721" format="2">
  <advance width="876"/>
  <unicode hex="1721"/>
  <outline>
    <contour>
      <point x="140" y="0" type="line"/>
      <point x="219" y="0" type="line"/>
      <point x="461" y="153"/>
      <point x="722" y="435"/>
      <point x="903" y="634" type="curve"/>
      <point x="807" y="634" type="line"/>
      <point x="668" y="480"/>
      <point x="496" y="307"/>
      <point x="338" y="175" type="curve" smooth="yes"/>
      <point x="305" y="148"/>
      <point x="268" y="117"/>
      <point x="236" y="93" type="curve"/>
      <point x="251" y="142"/>
      <point x="259" y="177"/>
      <point x="268" y="216" type="curve" smooth="yes"/>
      <point x="294" y="327" type="line" smooth="yes"/>
      <point x="317" y="426"/>
      <point x="350" y="548"/>
      <point x="350" y="586" type="curve" smooth="yes"/>
      <point x="350" y="610"/>
      <point x="338" y="634"/>
      <point x="307" y="634" type="curve" smooth="yes"/>
      <point x="284" y="634"/>
      <point x="261" y="627"/>
      <point x="236" y="615" type="curve" smooth="yes"/>
      <point x="70" y="535" type="line"/>
      <point x="49" y="444" type="line"/>
      <point x="271" y="553" type="line"/>
    </contour>
    <contour>
      <point x="582" y="83" type="line"/>
      <point x="686" y="150"/>
      <point x="753" y="203"/>
      <point x="834" y="278" type="curve"/>
      <point x="784" y="331" type="line"/>
      <point x="702" y="254"/>
      <point x="631" y="202"/>
      <point x="539" y="141" type="curve"/>
    </contour>
  </outline>
</glyph>
<glyph name="uni1722" format="2">
  <advance width="521"/>
  <unicode hex="1722"/>
  <outline>
    <contour>
      <point x="115" y="0" type="line"/>
      <point x="213" y="0" type="line"/>
      <point x="523" y="304" type="line"/>
      <point x="523" y="362" type="line"/>
      <point x="255" y="362" type="line"/>
      <point x="523" y="594" type="line"/>
      <point x="523" y="634" type="line"/>
      <point x="469" y="619"/>
      <point x="399" y="611"/>
      <point x="332" y="611" type="curve" smooth="yes"/>
      <point x="243" y="611"/>
      <point x="197" y="620"/>
      <point x="143" y="634" type="curve"/>
      <point x="117" y="571" type="line"/>
      <point x="168" y="551"/>
      <point x="235" y="541"/>
      <point x="300" y="541" type="curve" smooth="yes"/>
      <point x="321" y="541"/>
      <point x="339" y="543"/>
      <point x="365" y="547" type="curve"/>
      <point x="341" y="529"/>
      <point x="320" y="511"/>
      <point x="300" y="494" type="curve" smooth="yes"/>
      <point x="129" y="345" type="line"/>
      <point x="129" y="294" type="line"/>
      <point x="411" y="294" type="line"/>
    </contour>
  </outline>
</glyph>
<glyph name="uni1723" format="2">
  <advance width="627"/>
  <unicode hex="1723"/>
  <outline>
    <contour>
      <point x="78" y="0" type="line"/>
      <point x="160" y="0" type="line"/>
      <point x="293" y="350" type="line"/>
      <point x="331" y="326"/>
      <point x="373" y="311"/>
      <point x="423" y="311" type="curve" smooth="yes"/>
      <point x="515" y="311"/>
      <point x="592" y="382"/>
      <point x="592" y="474" type="curve" smooth="yes"/>
      <point x="592" y="572"/>
      <point x="523" y="634"/>
      <point x="439" y="634" type="curve" smooth="yes"/>
      <point x="351" y="634"/>
      <point x="295" y="581"/>
      <point x="259" y="480" type="curve"/>
      <point x="230" y="519"/>
      <point x="208" y="570"/>
      <point x="200" y="634" type="curve"/>
      <point x="126" y="634" type="line"/>
      <point x="135" y="547"/>
      <point x="177" y="467"/>
      <point x="231" y="405" type="curve"/>
    </contour>
    <contour>
      <point x="420" y="379" type="curve" smooth="yes"/>
      <point x="383" y="379"/>
      <point x="346" y="392"/>
      <point x="318" y="416" type="curve"/>
      <point x="349" y="505"/>
      <point x="382" y="566"/>
      <point x="442" y="566" type="curve" smooth="yes"/>
      <point x="486" y="566"/>
      <point x="520" y="534"/>
      <point x="520" y="481" type="curve" smooth="yes"/>
      <point x="520" y="425"/>
      <point x="482" y="379"/>
    </contour>
  </outline>
</glyph>
<glyph name="uni1724" format="2">
  <advance width="784"/>
  <unicode hex="1724"/>
  <outline>
    <contour>
      <point x="70" y="0" type="line"/>
      <point x="149" y="0" type="line"/>
      <point x="475" y="358" type="line" smooth="yes"/>
      <point x="501" y="386"/>
      <point x="583" y="478"/>
      <point x="608" y="510" type="curve"/>
      <point x="597" y="473"/>
      <point x="588" y="431"/>
      <point x="580" y="396" type="curve" smooth="yes"/>
      <point x="488" y="0" type="line"/>
      <point x="568" y="0" type="line"/>
      <point x="714" y="634" type="line"/>
      <point x="635" y="634" type="line"/>
      <point x="291" y="261" type="line" smooth="yes"/>
      <point x="243" y="209"/>
      <point x="212" y="168"/>
      <point x="176" y="124" type="curve"/>
      <point x="190" y="169"/>
      <point x="201" y="224"/>
      <point x="211" y="268" type="curve" smooth="yes"/>
      <point x="296" y="634" type="line"/>
      <point x="216" y="634" type="line"/>
    </contour>
  </outline>
</glyph>
<glyph name="uni1725" format="2">
  <advance width="805"/>
  <unicode hex="1725"/>
  <outline>
    <contour>
      <point x="70" y="0" type="line"/>
      <point x="149" y="0" type="line"/>
      <point x="255" y="67"/>
      <point x="363" y="158"/>
      <point x="468" y="257" type="curve"/>
      <point x="661" y="48" type="line"/>
      <point x="714" y="96" type="line"/>
      <point x="522" y="307" type="line"/>
      <point x="637" y="419"/>
      <point x="744" y="537"/>
      <point x="833" y="634" type="curve"/>
      <point x="737" y="634" type="line"/>
      <point x="598" y="480"/>
      <point x="426" y="307"/>
      <point x="268" y="175" type="curve" smooth="yes"/>
      <point x="235" y="148"/>
      <point x="198" y="117"/>
      <point x="166" y="93" type="curve"/>
      <point x="181" y="142"/>
      <point x="189" y="177"/>
      <point x="198" y="216" type="curve" smooth="yes"/>
      <point x="296" y="634" type="line"/>
      <point x="216" y="634" type="line"/>
    </contour>
  </outline>
</glyph>
<glyph name="uni1726" format="2">
  <advance width="960"/>
  <unicode hex="1726"/>
  <outline>
    <contour>
      <point x="70" y="0" type="line"/>
      <point x="149" y="0" type="line"/>
      <point x="458" y="402" type="line" smooth="yes"/>
      <point x="492" y="446"/>
      <point x="524" y="491"/>
      <point x="543" y="521" type="curve"/>
      <point x="538" y="486"/>
      <point x="534" y="422"/>
      <point x="532" y="385" type="curve" smooth="yes"/>
      <point x="512" y="0" type="line"/>
      <point x="591" y="0" type="line"/>
      <point x="999" y="634" type="line"/>
      <point x="914" y="634" type="line"/>
      <point x="669" y="253" type="line" smooth="yes"/>
      <point x="638" y="205"/>
      <point x="615" y="170"/>
      <point x="589" y="121" type="curve"/>
      <point x="597" y="172"/>
      <point x="600" y="218"/>
      <point x="602" y="260" type="curve" smooth="yes"/>
      <point x="623" y="634" type="line"/>
      <point x="544" y="634" type="line"/>
      <point x="284" y="289" type="line" smooth="yes"/>
      <point x="250" y="244"/>
      <point x="208" y="188"/>
      <point x="177" y="148" type="curve"/>
      <point x="190" y="192"/>
      <point x="205" y="247"/>
      <point x="218" y="303" type="curve" smooth="yes"/>
      <point x="296" y="634" type="line"/>
      <point x="216" y="634" type="line"/>
    </contour>
  </outline>
</glyph>
<glyph name="uni1727" format="2">
  <advance width="870"/>
  <unicode hex="1727"/>
  <outline>
    <contour>
      <point x="138" y="0" type="line"/>
      <point x="217" y="0" type="line"/>
      <point x="459" y="153"/>
      <point x="720" y="435"/>
      <point x="901" y="634" type="curve"/>
      <point x="805" y="634" type="line"/>
      <point x="666" y="480"/>
      <point x="494" y="307"/>
      <point x="336" y="175" type="curve" smooth="yes"/>
      <point x="303" y="148"/>
      <point x="266" y="117"/>
      <point x="234" y="93" type="curve"/>
      <point x="249" y="142"/>
      <point x="257" y="177"/>
      <point x="266" y="216" type="curve" smooth="yes"/>
      <point x="271" y="236" type="line" smooth="yes"/>
      <point x="294" y="335"/>
      <point x="299" y="351"/>
      <point x="299" y="389" type="curve" smooth="yes"/>
      <point x="299" y="413"/>
      <point x="287" y="437"/>
      <point x="256" y="437" type="curve" smooth="yes"/>
      <point x="233" y="437"/>
      <point x="211" y="428"/>
      <point x="185" y="417" type="curve" smooth="yes"/>
      <point x="22" y="351" type="line"/>
      <point x="2" y="264" type="line"/>
      <point x="219" y="354" type="line"/>
    </contour>
    <contour>
      <point x="253" y="500" type="line"/>
      <point x="333" y="500" type="line"/>
      <point x="373" y="674" type="line"/>
      <point x="293" y="674" type="line"/>
    </contour>
  </outline>
</glyph>
<glyph name="uni1728" format="2">
  <advance width="966"/>
  <unicode hex="1728"/>
  <outline>
    <contour>
      <point x="204" y="0" type="line"/>
      <point x="285" y="0" type="line"/>
      <point x="434" y="481" type="line"/>
      <point x="487" y="447"/>
      <point x="555" y="419"/>
      <point x="621" y="402" type="curve"/>
      <point x="496" y="0" type="line"/>
      <point x="577" y="0" type="line"/>
      <point x="697" y="386" type="line"/>
      <point x="717" y="383"/>
      <point x="736" y="382"/>
      <point x="754" y="382" type="curve" smooth="yes"/>
      <point x="844" y="382"/>
      <point x="910" y="437"/>
      <point x="910" y="520" type="curve" smooth="yes"/>
      <point x="910" y="582"/>
      <point x="856" y="619"/>
      <point x="795" y="619" type="curve" smooth="yes"/>
      <point x="707" y="619"/>
      <point x="671" y="554"/>
      <point x="642" y="467" type="curve"/>
      <point x="572" y="485"/>
      <point x="501" y="518"/>
      <point x="455" y="548" type="curve"/>
      <point x="482" y="634" type="line"/>
      <point x="399" y="634" type="line"/>
      <point x="358" y="613"/>
      <point x="319" y="605"/>
      <point x="266" y="605" type="curve" smooth="yes"/>
      <point x="213" y="605"/>
      <point x="151" y="618"/>
      <point x="103" y="634" type="curve"/>
      <point x="76" y="572" type="line"/>
      <point x="125" y="549"/>
      <point x="214" y="537"/>
      <point x="264" y="537" type="curve" smooth="yes"/>
      <point x="296" y="537"/>
      <point x="343" y="542"/>
      <point x="376" y="554" type="curve"/>
    </contour>
    <contour>
      <point x="757" y="451" type="curve" smooth="yes"/>
      <point x="744" y="451"/>
      <point x="731" y="452"/>
      <point x="718" y="454" type="curve"/>
      <point x="738" y="514"/>
      <point x="757" y="551"/>
      <point x="797" y="551" type="curve" smooth="yes"/>
      <point x="824" y="551"/>
      <point x="838" y="533"/>
      <point x="838" y="511" type="curve" smooth="yes"/>
      <point x="838" y="480"/>
      <point x="814" y="451"/>
    </contour>
  </outline>
</glyph>
<glyph name="uni1729" format="2">
  <advance width="873"/>
  <unicode hex="1729"/>
  <outline>
    <contour>
      <point x="136" y="0" type="line"/>
      <point x="215" y="0" type="line"/>
      <point x="321" y="67"/>
      <point x="429" y="158"/>
      <point x="534" y="257" type="curve"/>
      <point x="727" y="48" type="line"/>
      <point x="780" y="96" type="line"/>
      <point x="586" y="306" type="line"/>
      <point x="701" y="418"/>
      <point x="810" y="537"/>
      <point x="899" y="634" type="curve"/>
      <point x="803" y="634" type="line"/>
      <point x="664" y="480"/>
      <point x="492" y="307"/>
      <point x="334" y="175" type="curve" smooth="yes"/>
      <point x="301" y="148"/>
      <point x="264" y="117"/>
      <point x="232" y="93" type="curve"/>
      <point x="247" y="142"/>
      <point x="254" y="177"/>
      <point x="264" y="216" type="curve" smooth="yes"/>
      <point x="291" y="327" type="line" smooth="yes"/>
      <point x="315" y="426"/>
      <point x="326" y="473"/>
      <point x="326" y="511" type="curve" smooth="yes"/>
      <point x="326" y="535"/>
      <point x="314" y="559"/>
      <point x="283" y="559" type="curve" smooth="yes"/>
      <point x="260" y="559"/>
      <point x="239" y="552"/>
      <point x="213" y="542" type="curve" smooth="yes"/>
      <point x="50" y="480" type="line"/>
      <point x="31" y="396" type="line"/>
      <point x="247" y="478" type="line"/>
    </contour>
  </outline>
</glyph>
<glyph name="uni172A" format="2">
  <advance width="519"/>
  <unicode hex="172A"/>
  <outline>
    <contour>
      <point x="157" y="0" type="line"/>
      <point x="242" y="0" type="line"/>
      <point x="529" y="634" type="line"/>
      <point x="470" y="634" type="line"/>
      <point x="422" y="617"/>
      <point x="344" y="611"/>
      <point x="285" y="611" type="curve" smooth="yes"/>
      <point x="206" y="611"/>
      <point x="154" y="620"/>
      <point x="106" y="634" type="curve"/>
      <point x="81" y="573" type="line"/>
      <point x="126" y="553"/>
      <point x="202" y="543"/>
      <point x="274" y="543" type="curve" smooth="yes"/>
      <point x="316" y="543"/>
      <point x="361" y="545"/>
      <point x="408" y="553" type="curve"/>
    </contour>
  </outline>
</glyph>
<glyph name="uni172B" format="2">
  <advance width="872"/>
  <unicode hex="172B"/>
  <outline>
    <contour>
      <point x="135" y="0" type="line"/>
      <point x="214" y="0" type="line"/>
      <point x="314" y="63"/>
      <point x="418" y="149"/>
      <point x="518" y="242" type="curve"/>
      <point x="739" y="54" type="line"/>
      <point x="787" y="109" type="line"/>
      <point x="570" y="291" type="line"/>
      <point x="691" y="408"/>
      <point x="805" y="532"/>
      <point x="898" y="634" type="curve"/>
      <point x="802" y="634" type="line"/>
      <point x="715" y="538"/>
      <point x="616" y="434"/>
      <point x="515" y="338" type="curve"/>
      <point x="328" y="495" type="line"/>
      <point x="333" y="520"/>
      <point x="336" y="540"/>
      <point x="336" y="552" type="curve" smooth="yes"/>
      <point x="336" y="576"/>
      <point x="324" y="600"/>
      <point x="293" y="600" type="curve" smooth="yes"/>
      <point x="270" y="600"/>
      <point x="248" y="592"/>
      <point x="222" y="581" type="curve" smooth="yes"/>
      <point x="60" y="512" type="line"/>
      <point x="40" y="425" type="line"/>
      <point x="257" y="519" type="line"/>
    </contour>
    <contour>
      <point x="231" y="93" type="curve"/>
      <point x="260" y="185"/>
      <point x="285" y="325"/>
      <point x="310" y="418" type="curve"/>
      <point x="462" y="289" type="line"/>
      <point x="419" y="249"/>
      <point x="375" y="210"/>
      <point x="333" y="175" type="curve" smooth="yes"/>
      <point x="300" y="148"/>
      <point x="263" y="117"/>
    </contour>
  </outline>
</glyph>
<glyph name="uni172C" format="2">
  <advance width="875"/>
  <unicode hex="172C"/>
  <outline>
    <contour>
      <point x="161" y="0" type="line"/>
      <point x="240" y="0" type="line"/>
      <point x="566" y="358" type="line" smooth="yes"/>
      <point x="592" y="386"/>
      <point x="674" y="478"/>
      <point x="699" y="510" type="curve"/>
      <point x="688" y="473"/>
      <point x="679" y="431"/>
      <point x="671" y="396" type="curve" smooth="yes"/>
      <point x="579" y="0" type="line"/>
      <point x="659" y="0" type="line"/>
      <point x="805" y="634" type="line"/>
      <point x="726" y="634" type="line"/>
      <point x="382" y="261" type="line" smooth="yes"/>
      <point x="334" y="209"/>
      <point x="303" y="168"/>
      <point x="267" y="124" type="curve"/>
      <point x="281" y="169"/>
      <point x="291" y="224"/>
      <point x="302" y="268" type="curve" smooth="yes"/>
      <point x="337" y="411" type="line" smooth="yes"/>
      <point x="359" y="501"/>
      <point x="370" y="548"/>
      <point x="370" y="586" type="curve" smooth="yes"/>
      <point x="370" y="610"/>
      <point x="358" y="635"/>
      <point x="327" y="635" type="curve" smooth="yes"/>
      <point x="303" y="635"/>
      <point x="284" y="629"/>
      <point x="256" y="615" type="curve" smooth="yes"/>
      <point x="62" y="520" type="line"/>
      <point x="41" y="430" type="line"/>
      <point x="288" y="551" type="line"/>
    </contour>
  </outline>
</glyph>
<glyph name="uni172D" format="2">
  <advance width="613"/>
  <unicode hex="172D"/>
  <outline>
    <contour>
      <point x="68" y="295" type="line"/>
      <point x="539" y="295" type="line"/>
      <point x="555" y="363" type="line"/>
      <point x="84" y="363" type="line"/>
    </contour>
  </outline>
</glyph>
<glyph name="uni172E" format="2">
  <advance width="892"/>
  <unicode hex="172E"/>
  <outline>
    <contour>
      <point x="705" y="-165" type="line"/>
      <point x="776" y="-90"/>
      <point x="829" y="4"/>
      <point x="829" y="84" type="curve" smooth="yes"/>
      <point x="829" y="131"/>
      <point x="810" y="158"/>
      <point x="775" y="158" type="curve" smooth="yes"/>
      <point x="758" y="158"/>
      <point x="744" y="154"/>
      <point x="729" y="148" type="curve" smooth="yes"/>
      <point x="588" y="93" type="line"/>
      <point x="598" y="131"/>
      <point x="604" y="154"/>
      <point x="612" y="189" type="curve" smooth="yes"/>
      <point x="714" y="634" type="line"/>
      <point x="635" y="634" type="line"/>
      <point x="291" y="261" type="line" smooth="yes"/>
      <point x="243" y="209"/>
      <point x="212" y="168"/>
      <point x="176" y="124" type="curve"/>
      <point x="190" y="169"/>
      <point x="201" y="224"/>
      <point x="211" y="268" type="curve" smooth="yes"/>
      <point x="296" y="634" type="line"/>
      <point x="216" y="634" type="line"/>
      <point x="70" y="0" type="line"/>
      <point x="149" y="0" type="line"/>
      <point x="475" y="358" type="line" smooth="yes"/>
      <point x="501" y="386"/>
      <point x="583" y="478"/>
      <point x="608" y="510" type="curve"/>
      <point x="597" y="473"/>
      <point x="588" y="431"/>
      <point x="580" y="396" type="curve" smooth="yes"/>
      <point x="488" y="0" type="line"/>
      <point x="539" y="0" type="line"/>
      <point x="757" y="81" type="line"/>
      <point x="757" y="10"/>
      <point x="692" y="-75"/>
      <point x="654" y="-121" type="curve"/>
    </contour>
  </outline>
</glyph>
<glyph name="uni172F" format="2">
  <advance width="1017"/>
  <unicode hex="172F"/>
  <outline>
    <contour>
      <point x="163" y="0" type="line"/>
      <point x="212" y="0" type="line"/>
      <point x="372" y="99"/>
      <point x="547" y="288"/>
      <point x="655" y="471" type="curve"/>
      <point x="671" y="400"/>
      <point x="735" y="350"/>
      <point x="810" y="350" type="curve" smooth="yes"/>
      <point x="906" y="350"/>
      <point x="958" y="409"/>
      <point x="1015" y="493" type="curve"/>
      <point x="963" y="535" type="line"/>
      <point x="910" y="461"/>
      <point x="875" y="418"/>
      <point x="813" y="418" type="curve" smooth="yes"/>
      <point x="765" y="418"/>
      <point x="712" y="451"/>
      <point x="712" y="560" type="curve" smooth="yes"/>
      <point x="712" y="634" type="line"/>
      <point x="661" y="634" type="line"/>
      <point x="572" y="454"/>
      <point x="511" y="363"/>
      <point x="354" y="206" type="curve" smooth="yes"/>
      <point x="324" y="176"/>
      <point x="288" y="139"/>
      <point x="263" y="117" type="curve"/>
      <point x="275" y="158"/>
      <point x="288" y="200"/>
      <point x="296" y="236" type="curve" smooth="yes"/>
      <point x="335" y="402" type="line" smooth="yes"/>
      <point x="358" y="501"/>
      <point x="370" y="548"/>
      <point x="370" y="586" type="curve" smooth="yes"/>
      <point x="370" y="610"/>
      <point x="358" y="634"/>
      <point x="327" y="634" type="curve" smooth="yes"/>
      <point x="304" y="634"/>
      <point x="281" y="627"/>
      <point x="256" y="615" type="curve" smooth="yes"/>
      <point x="62" y="520" type="line"/>
      <point x="41" y="430" type="line"/>
      <point x="291" y="553" type="line"/>
    </contour>
  </outline>
</glyph>
<glyph name="uni1730" format="2">
  <advance width="958"/>
  <unicode hex="1730"/>
  <outline>
    <contour>
      <point x="782" y="-139" type="curve"/>
      <point x="855" y="-139" type="line"/>
      <point x="855" y="-19"/>
      <point x="877" y="122"/>
      <point x="936" y="199" type="curve"/>
      <point x="873" y="199" type="line"/>
      <point x="816" y="153"/>
      <point x="716" y="95"/>
      <point x="639" y="78" type="curve"/>
      <point x="723" y="231"/>
      <point x="779" y="434"/>
      <point x="821" y="634" type="curve"/>
      <point x="742" y="634" type="line"/>
      <point x="578" y="466"/>
      <point x="389" y="264"/>
      <point x="200" y="121" type="curve"/>
      <point x="258" y="232"/>
      <point x="345" y="524"/>
      <point x="345" y="586" type="curve" smooth="yes"/>
      <point x="345" y="610"/>
      <point x="333" y="634"/>
      <point x="302" y="634" type="curve" smooth="yes"/>
      <point x="279" y="634"/>
      <point x="255" y="629"/>
      <point x="229" y="618" type="curve" smooth="yes"/>
      <point x="67" y="551" type="line"/>
      <point x="48" y="467" type="line"/>
      <point x="264" y="555" type="line"/>
      <point x="222" y="384"/>
      <point x="178" y="239"/>
      <point x="64" y="0" type="curve"/>
      <point x="143" y="0" type="line"/>
      <point x="350" y="125"/>
      <point x="547" y="335"/>
      <point x="712" y="502" type="curve"/>
      <point x="672" y="342"/>
      <point x="605" y="166"/>
      <point x="526" y="0" type="curve"/>
      <point x="545" y="0" type="line" smooth="yes"/>
      <point x="656" y="0"/>
      <point x="750" y="43"/>
      <point x="807" y="73" type="curve"/>
      <point x="793" y="31"/>
      <point x="782" y="-56"/>
    </contour>
  </outline>
</glyph>
<glyph name="uni1731" format="2">
  <advance width="805"/>
  <unicode hex="1731"/>
  <outline>
    <contour>
      <point x="69" y="0" type="line"/>
      <point x="148" y="0" type="line"/>
      <point x="390" y="153"/>
      <point x="651" y="435"/>
      <point x="832" y="634" type="curve"/>
      <point x="736" y="634" type="line"/>
      <point x="597" y="480"/>
      <point x="425" y="307"/>
      <point x="267" y="175" type="curve" smooth="yes"/>
      <point x="234" y="148"/>
      <point x="197" y="117"/>
      <point x="165" y="93" type="curve"/>
      <point x="180" y="142"/>
      <point x="193" y="197"/>
      <point x="202" y="236" type="curve" smooth="yes"/>
      <point x="295" y="634" type="line"/>
      <point x="216" y="634" type="line"/>
    </contour>
  </outline>
</glyph>
<glyph name="uni1732" format="2">
  <unicode hex="1732"/>
  <outline>
    <contour>
      <point x="-409" y="732" type="line"/>
      <point x="-119" y="732" type="line"/>
      <point x="-103" y="800" type="line"/>
      <point x="-393" y="800" type="line"/>
    </contour>
  </outline>
</glyph>
<glyph name="uni1733" format="2">
  <unicode hex="1733"/>
  <outline>
    <contour>
      <point x="-386" y="0" type="line"/>
      <point x="-96" y="0" type="line"/>
      <point x="-80" y="68" type="line"/>
      <point x="-370" y="68" type="line"/>
    </contour>
  </outline>
</glyph>
<glyph name="uni1734" format="2">
  <unicode hex="1734"/>
  <outline>
    <contour>
      <point x="-419" y="-139" type="line"/>
      <point x="302" y="-139"/>
      <point x="557" y="338"/>
      <point x="629" y="750" type="curve"/>
      <point x="550" y="750" type="line"/>
      <point x="452" y="214"/>
      <point x="94" y="-71"/>
      <point x="-404" y="-71" type="curve"/>
    </contour>
  </outline>
</glyph>
<glyph name="uni1725uni1732" format="2">
  <advance width="805"/>
  <note>
uni1725_i
</note>
  <outline>
    <contour>
      <point x="70" y="0" type="line"/>
      <point x="149" y="0" type="line"/>
      <point x="247" y="63"/>
      <point x="353" y="148"/>
      <point x="468" y="257" type="curve"/>
      <point x="661" y="48" type="line"/>
      <point x="714" y="96" type="line"/>
      <point x="522" y="307" type="line"/>
      <point x="592" y="376"/>
      <point x="695" y="484"/>
      <point x="833" y="634" type="curve"/>
      <point x="737" y="634" type="line"/>
      <point x="648" y="535"/>
      <point x="562" y="445"/>
      <point x="473" y="359" type="curve"/>
      <point x="434" y="398"/>
      <point x="394" y="436"/>
      <point x="353" y="471" type="curve"/>
      <point x="306" y="415" type="line"/>
      <point x="346" y="382"/>
      <point x="383" y="346"/>
      <point x="419" y="309" type="curve"/>
      <point x="325" y="220"/>
      <point x="242" y="149"/>
      <point x="166" y="93" type="curve"/>
      <point x="170" y="109"/>
      <point x="192" y="191"/>
      <point x="198" y="216" type="curve" smooth="yes"/>
      <point x="296" y="634" type="line"/>
      <point x="216" y="634" type="line"/>
    </contour>
  </outline>
</glyph>
<glyph name="uni1725uni1733" format="2">
  <advance width="805"/>
  <note>
uni1725_u
</note>
  <outline>
    <contour>
      <point x="70" y="0" type="line"/>
      <point x="149" y="0" type="line"/>
      <point x="247" y="63"/>
      <point x="353" y="148"/>
      <point x="468" y="257" type="curve"/>
      <point x="661" y="48" type="line"/>
      <point x="714" y="96" type="line"/>
      <point x="522" y="307" type="line"/>
      <point x="556" y="341" type="line"/>
      <point x="567" y="352"/>
      <point x="578" y="363"/>
      <point x="589" y="375" type="curve"/>
      <point x="657" y="314"/>
      <point x="717" y="250"/>
      <point x="779" y="177" type="curve"/>
      <point x="833" y="227" type="line"/>
      <point x="772" y="300"/>
      <point x="708" y="367"/>
      <point x="640" y="428" type="curve"/>
      <point x="695" y="485"/>
      <point x="758" y="552"/>
      <point x="833" y="634" type="curve"/>
      <point x="737" y="634" type="line"/>
      <point x="571" y="448"/>
      <point x="350" y="231"/>
      <point x="166" y="93" type="curve"/>
      <point x="170" y="109"/>
      <point x="189" y="177"/>
      <point x="198" y="216" type="curve" smooth="yes"/>
      <point x="296" y="634" type="line"/>
      <point x="216" y="634" type="line"/>
    </contour>
  </outline>
</glyph>
<glyph name="uni1726uni1733" format="2">
  <advance width="986"/>
  <note>
uni1726_u
</note>
  <outline>
    <contour>
      <point x="70" y="0" type="line"/>
      <point x="149" y="0" type="line"/>
      <point x="458" y="402" type="line" smooth="yes"/>
      <point x="486" y="438"/>
      <point x="529" y="500"/>
      <point x="543" y="521" type="curve"/>
      <point x="541" y="499"/>
      <point x="535" y="442"/>
      <point x="532" y="385" type="curve" smooth="yes"/>
      <point x="512" y="0" type="line"/>
      <point x="591" y="0" type="line"/>
      <point x="999" y="634" type="line"/>
      <point x="914" y="634" type="line"/>
      <point x="695" y="293" type="line" smooth="yes"/>
      <point x="641" y="209"/>
      <point x="627" y="188"/>
      <point x="589" y="121" type="curve"/>
      <point x="596" y="167"/>
      <point x="599" y="211"/>
      <point x="602" y="260" type="curve" smooth="yes"/>
      <point x="623" y="634" type="line"/>
      <point x="544" y="634" type="line"/>
      <point x="177" y="148" type="line"/>
      <point x="188" y="183"/>
      <point x="202" y="237"/>
      <point x="220" y="312" type="curve" smooth="yes"/>
      <point x="296" y="634" type="line"/>
      <point x="216" y="634" type="line"/>
    </contour>
    <contour>
      <point x="842" y="93" type="line"/>
      <point x="894" y="149"/>
      <point x="984" y="284"/>
      <point x="1023" y="354" type="curve"/>
      <point x="961" y="390" type="line"/>
      <point x="922" y="319"/>
      <point x="864" y="232"/>
      <point x="786" y="134" type="curve"/>
    </contour>
  </outline>
</glyph>
<glyph name="uni1727uni1732" format="2">
  <advance width="870"/>
  <note>
uni1727_i
</note>
  <outline>
    <contour>
      <point x="138" y="0" type="line"/>
      <point x="217" y="0" type="line"/>
      <point x="431" y="134"/>
      <point x="675" y="384"/>
      <point x="901" y="634" type="curve"/>
      <point x="805" y="634" type="line"/>
      <point x="631" y="442"/>
      <point x="417" y="231"/>
      <point x="234" y="93" type="curve"/>
      <point x="250" y="148"/>
      <point x="255" y="167"/>
      <point x="271" y="236" type="curve" smooth="yes"/>
      <point x="286" y="299"/>
      <point x="299" y="340"/>
      <point x="299" y="389" type="curve" smooth="yes"/>
      <point x="299" y="413"/>
      <point x="287" y="437"/>
      <point x="256" y="437" type="curve" smooth="yes"/>
      <point x="233" y="437"/>
      <point x="207" y="426"/>
      <point x="180" y="415" type="curve" smooth="yes"/>
      <point x="22" y="351" type="line"/>
      <point x="2" y="264" type="line"/>
      <point x="219" y="354" type="line"/>
    </contour>
    <contour>
      <point x="40" y="512" type="line"/>
      <point x="330" y="512" type="line"/>
      <point x="346" y="580" type="line"/>
      <point x="56" y="580" type="line"/>
    </contour>
  </outline>
</glyph>
<glyph name="uni1727uni1733" format="2">
  <advance width="870"/>
  <note>
uni1727_u
</note>
  <outline>
    <contour>
      <point x="582" y="83" type="line"/>
      <point x="674" y="142"/>
      <point x="758" y="207"/>
      <point x="834" y="278" type="curve"/>
      <point x="784" y="331" type="line"/>
      <point x="729" y="280"/>
      <point x="678" y="234"/>
      <point x="539" y="141" type="curve"/>
    </contour>
    <contour>
      <point x="253" y="500" type="line"/>
      <point x="333" y="500" type="line"/>
      <point x="373" y="674" type="line"/>
      <point x="293" y="674" type="line"/>
    </contour>
    <contour>
      <point x="138" y="0" type="line"/>
      <point x="217" y="0" type="line"/>
      <point x="431" y="134"/>
      <point x="675" y="384"/>
      <point x="901" y="634" type="curve"/>
      <point x="805" y="634" type="line"/>
      <point x="631" y="442"/>
      <point x="417" y="231"/>
      <point x="234" y="93" type="curve"/>
      <point x="250" y="148"/>
      <point x="255" y="167"/>
      <point x="271" y="236" type="curve" smooth="yes"/>
      <point x="286" y="299"/>
      <point x="299" y="340"/>
      <point x="299" y="389" type="curve" smooth="yes"/>
      <point x="299" y="413"/>
      <point x="287" y="437"/>
      <point x="256" y="437" type="curve" smooth="yes"/>
      <point x="233" y="437"/>
      <point x="207" y="426"/>
      <point x="180" y="415" type="curve" smooth="yes"/>
      <point x="22" y="351" type="line"/>
      <point x="2" y="264" type="line"/>
      <point x="219" y="354" type="line"/>
    </contour>
  </outline>
</glyph>
<glyph name="uni1729uni1732" format="2">
  <advance width="873"/>
  <note>
uni1729_i
</note>
  <outline>
    <contour>
      <point x="136" y="0" type="line"/>
      <point x="215" y="0" type="line"/>
      <point x="313" y="63"/>
      <point x="419" y="148"/>
      <point x="534" y="257" type="curve"/>
      <point x="727" y="48" type="line"/>
      <point x="780" y="96" type="line"/>
      <point x="586" y="306" type="line"/>
      <point x="664" y="381"/>
      <point x="768" y="491"/>
      <point x="899" y="634" type="curve"/>
      <point x="803" y="634" type="line"/>
      <point x="715" y="536"/>
      <point x="627" y="444"/>
      <point x="539" y="359" type="curve"/>
      <point x="500" y="399"/>
      <point x="460" y="436"/>
      <point x="419" y="471" type="curve"/>
      <point x="372" y="415" type="line"/>
      <point x="411" y="381"/>
      <point x="449" y="346"/>
      <point x="485" y="309" type="curve"/>
      <point x="391" y="221"/>
      <point x="307" y="149"/>
      <point x="232" y="93" type="curve"/>
      <point x="264" y="213"/>
      <point x="326" y="458"/>
      <point x="326" y="511" type="curve" smooth="yes"/>
      <point x="326" y="535"/>
      <point x="314" y="559"/>
      <point x="283" y="559" type="curve" smooth="yes"/>
      <point x="264" y="559"/>
      <point x="241" y="553"/>
      <point x="213" y="542" type="curve" smooth="yes"/>
      <point x="50" y="480" type="line"/>
      <point x="31" y="396" type="line"/>
      <point x="247" y="478" type="line"/>
    </contour>
  </outline>
</glyph>
<glyph name="uni1729uni1733" format="2">
  <advance width="873"/>
  <note>
uni1729_u
</note>
  <outline>
    <contour>
      <point x="136" y="0" type="line"/>
      <point x="215" y="0" type="line"/>
      <point x="313" y="63"/>
      <point x="419" y="148"/>
      <point x="534" y="257" type="curve"/>
      <point x="727" y="48" type="line"/>
      <point x="780" y="96" type="line"/>
      <point x="586" y="306" type="line"/>
      <point x="607" y="327"/>
      <point x="630" y="350"/>
      <point x="655" y="375" type="curve"/>
      <point x="722" y="315"/>
      <point x="783" y="250"/>
      <point x="845" y="177" type="curve"/>
      <point x="898" y="227" type="line"/>
      <point x="837" y="301"/>
      <point x="773" y="368"/>
      <point x="706" y="427" type="curve"/>
      <point x="762" y="486"/>
      <point x="826" y="555"/>
      <point x="899" y="634" type="curve"/>
      <point x="803" y="634" type="line"/>
      <point x="603" y="411"/>
      <point x="391" y="212"/>
      <point x="232" y="93" type="curve"/>
      <point x="264" y="213"/>
      <point x="326" y="458"/>
      <point x="326" y="511" type="curve" smooth="yes"/>
      <point x="326" y="535"/>
      <point x="314" y="559"/>
      <point x="283" y="559" type="curve" smooth="yes"/>
      <point x="264" y="559"/>
      <point x="241" y="553"/>
      <point x="213" y="542" type="curve" smooth="yes"/>
      <point x="50" y="480" type="line"/>
      <point x="31" y="396" type="line"/>
      <point x="247" y="478" type="line"/>
    </contour>
  </outline>
</glyph>
<glyph name="uni172Buni1733" format="2">
  <advance width="872"/>
  <note>
uni172B_u
</note>
  <outline>
    <contour>
      <point x="593" y="-69" type="line"/>
      <point x="716" y="35" type="line" smooth="yes"/>
      <point x="750" y="62"/>
      <point x="765" y="82"/>
      <point x="765" y="101" type="curve" smooth="yes"/>
      <point x="765" y="122"/>
      <point x="747" y="142"/>
      <point x="709" y="174" type="curve" smooth="yes"/>
      <point x="570" y="291" type="line"/>
      <point x="659" y="377"/>
      <point x="769" y="491"/>
      <point x="898" y="634" type="curve"/>
      <point x="802" y="634" type="line"/>
      <point x="689" y="511"/>
      <point x="595" y="414"/>
      <point x="515" y="338" type="curve"/>
      <point x="328" y="495" type="line"/>
      <point x="333" y="521"/>
      <point x="336" y="540"/>
      <point x="336" y="552" type="curve" smooth="yes"/>
      <point x="336" y="563"/>
      <point x="333" y="576"/>
      <point x="326" y="585" type="curve" smooth="yes"/>
      <point x="319" y="594"/>
      <point x="309" y="600"/>
      <point x="293" y="600" type="curve" smooth="yes"/>
      <point x="278" y="600"/>
      <point x="253" y="594"/>
      <point x="222" y="581" type="curve" smooth="yes"/>
      <point x="60" y="512" type="line"/>
      <point x="40" y="425" type="line"/>
      <point x="257" y="519" type="line"/>
      <point x="135" y="0" type="line"/>
      <point x="214" y="0" type="line"/>
      <point x="309" y="61"/>
      <point x="409" y="141"/>
      <point x="518" y="242" type="curve"/>
      <point x="682" y="102" type="line"/>
      <point x="641" y="61"/>
      <point x="596" y="24"/>
      <point x="545" y="-15" type="curve"/>
    </contour>
    <contour>
      <point x="231" y="93" type="curve"/>
      <point x="247" y="149"/>
      <point x="249" y="157"/>
      <point x="263" y="216" type="curve" smooth="yes"/>
      <point x="310" y="418" type="line"/>
      <point x="462" y="289" type="line"/>
      <point x="430" y="256"/>
      <point x="284" y="130"/>
    </contour>
  </outline>
</glyph>
<glyph name="uni172Duni1732" format="2">
  <advance width="646"/>
  <note>
uni172D_i
</note>
  <outline>
    <contour>
      <point x="197" y="0" type="line"/>
      <point x="276" y="0" type="line"/>
      <point x="344" y="295" type="line"/>
      <point x="554" y="295" type="line"/>
      <point x="570" y="363" type="line"/>
      <point x="360" y="363" type="line"/>
      <point x="405" y="561" type="line"/>
      <point x="568" y="535" type="line"/>
      <point x="587" y="602" type="line"/>
      <point x="463" y="625" type="line" smooth="yes"/>
      <point x="440" y="629"/>
      <point x="413" y="634"/>
      <point x="391" y="634" type="curve" smooth="yes"/>
      <point x="360" y="634"/>
      <point x="333" y="603"/>
      <point x="324" y="562" type="curve" smooth="yes"/>
      <point x="279" y="363" type="line"/>
      <point x="84" y="363" type="line"/>
      <point x="68" y="295" type="line"/>
      <point x="264" y="295" type="line"/>
    </contour>
  </outline>
</glyph>
<glyph name="uni172Duni1733" format="2">
  <advance width="646"/>
  <note>
uni172D_u
</note>
  <outline>
    <contour>
      <point x="243" y="-7" type="curve" smooth="yes"/>
      <point x="265" y="-7"/>
      <point x="295" y="-2"/>
      <point x="320" y="2" type="curve" smooth="yes"/>
      <point x="454" y="25" type="line"/>
      <point x="466" y="92" type="line"/>
      <point x="292" y="67" type="line"/>
      <point x="344" y="295" type="line"/>
      <point x="554" y="295" type="line"/>
      <point x="570" y="363" type="line"/>
      <point x="359" y="363" type="line"/>
      <point x="419" y="626" type="line"/>
      <point x="339" y="626" type="line"/>
      <point x="279" y="363" type="line"/>
      <point x="84" y="363" type="line"/>
      <point x="68" y="295" type="line"/>
      <point x="264" y="295" type="line"/>
      <point x="220" y="105" type="line" smooth="yes"/>
      <point x="217" y="93"/>
      <point x="207" y="49"/>
      <point x="207" y="39" type="curve" smooth="yes"/>
      <point x="207" y="14"/>
      <point x="216" y="-7"/>
    </contour>
  </outline>
</glyph>
<glyph name="uni172Euni1733" format="2">
  <advance width="892"/>
  <note>
uni172E_u
</note>
  <outline>
    <contour>
      <point x="705" y="-165" type="line"/>
      <point x="782" y="-85"/>
      <point x="829" y="11"/>
      <point x="829" y="84" type="curve" smooth="yes"/>
      <point x="829" y="133"/>
      <point x="811" y="158"/>
      <point x="775" y="158" type="curve" smooth="yes"/>
      <point x="759" y="158"/>
      <point x="744" y="154"/>
      <point x="729" y="148" type="curve" smooth="yes"/>
      <point x="588" y="93" type="line"/>
      <point x="592" y="107"/>
      <point x="605" y="160"/>
      <point x="626" y="250" type="curve" smooth="yes"/>
      <point x="714" y="634" type="line"/>
      <point x="635" y="634" type="line"/>
      <point x="229" y="190" type="line" smooth="yes"/>
      <point x="210" y="169"/>
      <point x="194" y="146"/>
      <point x="176" y="124" type="curve"/>
      <point x="183" y="147"/>
      <point x="189" y="171"/>
      <point x="195" y="197" type="curve" smooth="yes"/>
      <point x="296" y="634" type="line"/>
      <point x="216" y="634" type="line"/>
      <point x="70" y="0" type="line"/>
      <point x="149" y="0" type="line"/>
      <point x="557" y="449" type="line" smooth="yes"/>
      <point x="584" y="478"/>
      <point x="600" y="499"/>
      <point x="608" y="510" type="curve"/>
      <point x="488" y="0" type="line"/>
      <point x="539" y="0" type="line"/>
      <point x="757" y="81" type="line"/>
      <point x="757" y="30"/>
      <point x="723" y="-38"/>
      <point x="654" y="-121" type="curve"/>
    </contour>
    <contour>
      <point x="658" y="229" type="line"/>
      <point x="852" y="229" type="line"/>
      <point x="868" y="297" type="line"/>
      <point x="674" y="297" type="line"/>
    </contour>
  </outline>
</glyph>
<glyph name="uni1730uni1733" format="2">
  <advance width="958"/>
  <note>
uni1730_u
</note>
  <outline>
    <contour>
      <point x="782" y="-139" type="curve"/>
      <point x="855" y="-139" type="line"/>
      <point x="855" y="1"/>
      <point x="884" y="129"/>
      <point x="936" y="199" type="curve"/>
      <point x="873" y="199" type="line"/>
      <point x="802" y="141"/>
      <point x="699" y="90"/>
      <point x="639" y="78" type="curve"/>
      <point x="708" y="206"/>
      <point x="769" y="391"/>
      <point x="821" y="634" type="curve"/>
      <point x="742" y="634" type="line"/>
      <point x="471" y="351"/>
      <point x="345" y="231"/>
      <point x="200" y="121" type="curve"/>
      <point x="219" y="161"/>
      <point x="237" y="204"/>
      <point x="254" y="249" type="curve" smooth="yes"/>
      <point x="287" y="338"/>
      <point x="345" y="535"/>
      <point x="345" y="586" type="curve" smooth="yes"/>
      <point x="345" y="610"/>
      <point x="333" y="634"/>
      <point x="302" y="634" type="curve" smooth="yes"/>
      <point x="279" y="634"/>
      <point x="254" y="628"/>
      <point x="229" y="618" type="curve" smooth="yes"/>
      <point x="67" y="551" type="line"/>
      <point x="48" y="467" type="line"/>
      <point x="264" y="555" type="line"/>
      <point x="208" y="328"/>
      <point x="154" y="191"/>
      <point x="64" y="0" type="curve"/>
      <point x="143" y="0" type="line"/>
      <point x="265" y="73"/>
      <point x="412" y="197"/>
      <point x="583" y="371" type="curve" smooth="yes"/>
      <point x="712" y="502" type="line"/>
      <point x="655" y="298"/>
      <point x="606" y="167"/>
      <point x="526" y="0" type="curve"/>
      <point x="545" y="0" type="line" smooth="yes"/>
      <point x="627" y="0"/>
      <point x="714" y="24"/>
      <point x="807" y="73" type="curve"/>
      <point x="791" y="24"/>
      <point x="782" y="-46"/>
    </contour>
    <contour>
      <point x="766" y="269" type="line"/>
      <point x="959" y="269" type="line"/>
      <point x="976" y="336" type="line"/>
      <point x="782" y="336" type="line"/>
    </contour>
  </outline>
</glyph>
<glyph name="uni1731uni1732" format="2">
  <advance width="805"/>
  <note>
uni1731_i
</note>
  <outline>
    <contour>
      <point x="69" y="0" type="line"/>
      <point x="148" y="0" type="line"/>
      <point x="316" y="105"/>
      <point x="544" y="316"/>
      <point x="832" y="634" type="curve"/>
      <point x="736" y="634" type="line"/>
      <point x="570" y="448"/>
      <point x="349" y="231"/>
      <point x="165" y="93" type="curve"/>
      <point x="171" y="117"/>
      <point x="194" y="202"/>
      <point x="202" y="235" type="curve" smooth="yes"/>
      <point x="295" y="634" type="line"/>
      <point x="216" y="634" type="line"/>
    </contour>
    <contour>
      <point x="485" y="599" type="line"/>
      <point x="542" y="648"/>
      <point x="633" y="744"/>
      <point x="686" y="808" type="curve"/>
      <point x="631" y="852" type="line"/>
      <point x="584" y="793"/>
      <point x="521" y="725"/>
      <point x="437" y="649" type="curve"/>
    </contour>
  </outline>
</glyph>
<glyph name="uni1731uni1733" format="2">
  <advance width="805"/>
  <note>
uni1731_u
</note>
  <outline>
    <contour>
      <point x="69" y="0" type="line"/>
      <point x="148" y="0" type="line"/>
      <point x="316" y="105"/>
      <point x="544" y="316"/>
      <point x="832" y="634" type="curve"/>
      <point x="736" y="634" type="line"/>
      <point x="570" y="448"/>
      <point x="349" y="231"/>
      <point x="165" y="93" type="curve"/>
      <point x="171" y="117"/>
      <point x="197" y="215"/>
      <point x="202" y="236" type="curve" smooth="yes"/>
      <point x="295" y="634" type="line"/>
      <point x="216" y="634" type="line"/>
    </contour>
    <contour>
      <point x="542" y="105" type="line"/>
      <point x="599" y="150"/>
      <point x="725" y="279"/>
      <point x="765" y="333" type="curve"/>
      <point x="708" y="378" type="line"/>
      <point x="657" y="315"/>
      <point x="586" y="240"/>
      <point x="492" y="156" type="curve"/>
    </contour>
  </outline>
</glyph>
<glyph name="uni1735.alt" format="2">
  <advance width="329"/>
  <outline>
    <contour>
      <point x="129" y="-139" type="line"/>
      <point x="199" y="-139" type="line"/>
      <point x="199" y="750" type="line"/>
      <point x="129" y="750" type="line"/>
    </contour>
  </outline>
</glyph>
<glyph name="uni1736.alt" format="2">
  <advance width="488"/>
  <outline>
    <contour>
      <point x="289" y="-139" type="line"/>
      <point x="359" y="-139" type="line"/>
      <point x="359" y="750" type="line"/>
      <point x="289" y="750" type="line"/>
    </contour>
    <contour>
      <point x="129" y="-139" type="line"/>
      <point x="199" y="-139" type="line"/>
      <point x="199" y="750" type="line"/>
      <point x="129" y="750" type="line"/>
    </contour>
  </outline>
</glyph>
